HIERARCHY
ROOT Hips
{
	OFFSET 0.00000 0.00000 0.00000
	CHANNELS 6 Xposition Yposition Zposition Zrotation Yrotation Xrotation 
	JOINT LHipJoint
	{
		OFFSET 0 0 0
		CHANNELS 3 Zrotation Yrotation Xrotation
		JOINT LeftUpLeg
		{
			OFFSET 1.57358 -1.76629 0.73362
			CHANNELS 3 Zrotation Yrotation Xrotation
			JOINT LeftLeg
			{
				OFFSET 2.40600 -6.61045 0.00000
				CHANNELS 3 Zrotation Yrotation Xrotation
				JOINT LeftFoot
				{
					OFFSET 2.66168 -7.31291 0.00000
					CHANNELS 3 Zrotation Yrotation Xrotation
					JOINT LeftToeBase
					{
						OFFSET 0.20870 -0.57341 2.12506
						CHANNELS 3 Zrotation Yrotation Xrotation
						End Site
						{
							OFFSET 0.00000 -0.00000 1.10557
						}
					}
				}
			}
		}
	}
	JOINT RHipJoint
	{
		OFFSET 0 0 0
		CHANNELS 3 Zrotation Yrotation Xrotation
		JOINT RightUpLeg
		{
			OFFSET -1.49299 -1.76629 0.73362
			CHANNELS 3 Zrotation Yrotation Xrotation
			JOINT RightLeg
			{
				OFFSET -2.43663 -6.69460 0.00000
				CHANNELS 3 Zrotation Yrotation Xrotation
				JOINT RightFoot
				{
					OFFSET -2.62959 -7.22474 0.00000
					CHANNELS 3 Zrotation Yrotation Xrotation
					JOINT RightToeBase
					{
						OFFSET -0.25784 -0.70841 2.21862
						CHANNELS 3 Zrotation Yrotation Xrotation
						End Site
						{
							OFFSET -0.00000 -0.00000 1.16452
						}
					}
				}
			}
		}
	}
	JOINT LowerBack
	{
		OFFSET 0 0 0
		CHANNELS 3 Zrotation Yrotation Xrotation
		JOINT Spine
		{
			OFFSET -0.00034 2.12399 -0.25450
			CHANNELS 3 Zrotation Yrotation Xrotation
			JOINT Spine1
			{
				OFFSET 0.05594 2.14379 -0.03318
				CHANNELS 3 Zrotation Yrotation Xrotation
				JOINT Neck
				{
					OFFSET 0 0 0
					CHANNELS 3 Zrotation Yrotation Xrotation
					JOINT Neck1
					{
						OFFSET -0.09835 1.62725 0.24211
						CHANNELS 3 Zrotation Yrotation Xrotation
						JOINT Head
						{
							OFFSET 0.10849 1.66041 -0.22648
							CHANNELS 3 Zrotation Yrotation Xrotation
							End Site
							{
								OFFSET 0.04385 1.68267 -0.10541
							}
						}
					}
				}
				JOINT LeftShoulder
				{
					OFFSET 0 0 0
					CHANNELS 3 Zrotation Yrotation Xrotation
					JOINT LeftArm
					{
						OFFSET 3.29108 0.79398 -0.68179
						CHANNELS 3 Zrotation Yrotation Xrotation
						JOINT LeftForeArm
						{
							OFFSET 5.15310 -0.00000 -0.00000
							CHANNELS 3 Zrotation Yrotation Xrotation
							JOINT LeftHand
							{
								OFFSET 3.75138 -0.00000 -0.00000
								CHANNELS 3 Zrotation Yrotation Xrotation
								JOINT LeftFingerBase
								{
									OFFSET 0 0 0
									CHANNELS 3 Zrotation Yrotation Xrotation
									JOINT LeftHandIndex1
									{
										OFFSET 0.52917 -0.00000 0.00000
										CHANNELS 3 Zrotation Yrotation Xrotation
										End Site
										{
											OFFSET 0.42663 -0.00000 0.00000
										}
									}
								}
								JOINT LThumb
								{
									OFFSET 0 0 0
									CHANNELS 3 Zrotation Yrotation Xrotation
									End Site
									{
										OFFSET 0.43315 -0.00000 0.43315
									}
								}
							}
						}
					}
				}
				JOINT RightShoulder
				{
					OFFSET 0 0 0
					CHANNELS 3 Zrotation Yrotation Xrotation
					JOINT RightArm
					{
						OFFSET -3.07414 1.06285 -0.44338
						CHANNELS 3 Zrotation Yrotation Xrotation
						JOINT RightForeArm
						{
							OFFSET -5.29613 -0.00000 0.00000
							CHANNELS 3 Zrotation Yrotation Xrotation
							JOINT RightHand
							{
								OFFSET -3.76144 -0.00000 -0.00000
								CHANNELS 3 Zrotation Yrotation Xrotation
								JOINT RightFingerBase
								{
									OFFSET 0 0 0
									CHANNELS 3 Zrotation Yrotation Xrotation
									JOINT RightHandIndex1
									{
										OFFSET -0.74732 -0.00000 0.00000
										CHANNELS 3 Zrotation Yrotation Xrotation
										End Site
										{
											OFFSET -0.60251 -0.00000 0.00000
										}
									}
								}
								JOINT RThumb
								{
									OFFSET 0 0 0
									CHANNELS 3 Zrotation Yrotation Xrotation
									End Site
									{
										OFFSET -0.61171 -0.00000 0.61171
									}
								}
							}
						}
					}
				}
			}
		}
	}
}
MOTION
Frames: 5
Frame Time: 0.0606061
0.00 0.00 0.00 -28.5166 41.6051 -26.0329 0.0000 0.0000 0.0000 -23.8677 2.3574 -49.8130 11.1158 17.9913 63.1571 -0.1266 -9.1863 -3.7813 0.0017 0.2657 0.7300 0.0000 0.0000 0.0000 19.3046 -13.0183 2.4181 -4.4656 -12.7554 38.4597 -1.2107 1.8667 -20.2674 -4.0638 12.2448 -36.6034 13.5998 3.2501 23.7745 10.3447 8.8644 5.7456 1.2525 4.3320 -6.5081 -5.3280 -2.3135 -14.7218 2.2781 -2.3344 14.1439 1.3701 -1.2029 6.8325 0.0000 -0.0000 0.0000 -88.5434 29.8106 45.0802 106.9847 -58.8814 -74.6540 -0.0000 0.0000 -26.0738 24.7827 6.7681 3.1145 -7.1250 0.0000 -0.0000 -1.6910 37.4223 0.3155 0.0000 -0.0000 0.0000 75.5009 -5.2220 44.4195 -103.1540 59.3360 -71.3663 0.0000 -0.0000 -13.0359 -16.2665 25.9351 -7.2724 7.1250 -0.0000 -0.0000 8.1606 -3.3468 7.7506
0.00 0.00 0.00 -25.6847 48.2912 -23.3111 0.0000 0.0000 0.0000 -34.4659 5.9746 -42.1924 7.3600 15.6277 50.2231 -0.0172 2.3264 -0.9475 0.5075 4.5668 12.6769 0.0000 0.0000 0.0000 13.6751 -13.5387 7.0177 -5.0210 -13.4074 40.9133 0.0130 8.2524 -5.5159 -4.1140 12.3105 -36.8395 7.9596 4.1262 18.1714 9.1671 7.7742 5.3115 3.6401 3.9407 -4.6757 -5.4771 -2.5564 -12.7858 3.5460 -2.9458 14.7444 1.7607 -1.4056 6.7370 -0.0000 -0.0000 0.0000 -86.3770 35.5725 46.2080 111.1467 -58.2410 -78.2054 -0.0000 0.0000 -26.8123 20.6268 6.3286 2.3759 -7.1250 0.0000 -0.0000 -5.1672 36.6954 1.0589 -0.0000 -0.0000 0.0000 75.2698 -6.3740 46.2160 -109.8574 58.4564 -77.1079 0.0000 -0.0000 -11.0694 -15.8899 27.4116 -7.4663 7.1250 -0.0000 -0.0000 8.5042 -1.9167 8.3079
0.00 0.00 0.00 -31.0443 55.5387 -24.2632 0.0000 0.0000 0.0000 -33.2042 8.5436 -31.9382 7.2141 15.5096 49.6795 0.7327 -2.8644 -15.4529 1.8119 8.4628 24.1288 0.0000 0.0000 0.0000 15.2679 -3.4234 1.2243 -9.2369 -16.9578 56.9060 0.0770 -5.6484 -5.0256 -1.9874 8.8397 -25.2952 5.0088 1.4140 11.9691 7.2316 3.0552 2.5595 4.3133 1.5784 -4.1755 -5.7466 -1.4427 -11.3226 6.0690 -1.8865 15.8063 2.7413 -0.7048 6.7925 -0.0000 -0.0000 0.0000 -84.1426 28.0680 48.1669 118.8021 -56.6208 -84.6604 -0.0000 0.0000 -23.9891 24.5372 6.4915 2.9545 -7.1250 0.0000 -0.0000 -1.8799 37.1037 0.3654 -0.0000 -0.0000 0.0000 72.9255 -14.0103 47.7120 -100.4287 59.5850 -69.0189 0.0000 -0.0000 -7.3324 -12.9071 28.4229 -6.2250 7.1250 -0.0000 -0.0000 10.3420 -1.3490 10.2655
0.00 0.00 0.00 -20.3904 63.6999 -10.8907 0.0000 0.0000 0.0000 -36.8660 9.0384 -15.4511 5.4011 13.8217 42.5278 1.8044 -2.8380 -24.6635 0.0766 1.7859 4.9144 0.0000 0.0000 0.0000 -1.6114 9.8701 -28.4800 -12.0544 -18.4136 66.1612 -0.4332 -4.8490 -15.1627 -0.7760 5.6245 -15.6987 -2.0000 -2.9399 12.2211 4.0011 -3.8797 0.8257 6.0066 -1.7946 -5.5624 -5.5828 -0.4826 -14.2411 5.6381 -0.4414 17.0051 2.7402 -0.0104 7.6025 -0.0000 0.0000 0.0000 -90.5373 1.6124 42.6341 133.2175 -51.6124 -96.3722 -0.0000 0.0000 -28.1759 27.1247 6.7931 3.4675 -7.1250 0.0000 -0.0000 0.3050 37.6028 -0.0555 -0.0000 0.0000 0.0000 66.8811 -26.9914 39.6807 -92.8395 59.9695 -62.4588 0.0000 -0.0000 -14.7478 -12.5363 26.8468 -5.7343 7.1250 -0.0000 -0.0000 10.4622 -2.9636 10.0792
0.00 0.00 0.00 -18.2167 56.7339 -8.6946 0.0000 0.0000 0.0000 -37.5861 6.4295 -3.9523 3.4999 11.4633 33.8589 0.6065 3.0610 -16.1406 0.0051 -0.4620 -1.2694 0.0000 0.0000 0.0000 1.0255 10.1748 -39.1773 -7.2037 -15.5011 49.6406 -0.4327 4.2027 -11.7007 -0.8967 6.0353 -16.8868 -0.7696 -2.5206 12.3973 4.7214 -3.1063 1.6584 5.9267 -1.4525 -4.8938 -5.0510 0.9950 -14.9637 3.2513 1.9488 16.9207 2.1154 0.9344 7.5930 0.0000 -0.0000 0.0000 -86.2315 2.0786 48.3661 136.6495 -49.9343 -99.0314 -0.0000 0.0000 -23.2375 26.1210 1.4400 0.7060 -7.1250 0.0000 -0.0000 -0.3631 31.5834 0.1191 0.0000 -0.0000 0.0000 62.4790 -25.3937 41.7722 -100.7420 59.5595 -69.2891 0.0000 -0.0000 -16.8700 -13.4787 26.6863 -6.1439 7.1250 -0.0000 -0.0000 9.8896 -2.9954 9.5040
